<svg id="yoga_x5F_planner" enable-background="new 0 0 300 300" height="512" viewBox="0 0 300 300" width="512" xmlns="http://www.w3.org/2000/svg"><path d="m64 48c2.209 0 4-1.791 4-4v-12c0-2.209-1.791-4-4-4s-4 1.791-4 4v12c0 2.209 1.791 4 4 4z"/><path d="m68 72v-12c0-2.209-1.791-4-4-4s-4 1.791-4 4v12c0 2.209 1.791 4 4 4s4-1.791 4-4z"/><path d="m56 48h-12c-2.209 0-4 1.791-4 4s1.791 4 4 4h12c2.209 0 4-1.791 4-4s-1.791-4-4-4z"/><path d="m72 56h12c2.209 0 4-1.791 4-4s-1.791-4-4-4h-12c-2.209 0-4 1.791-4 4s1.791 4 4 4z"/><path d="m259.402 61.897c-1.162-1.879-3.627-2.46-5.506-1.299-1.879 1.162-2.46 3.627-1.299 5.506 1.162 1.879 3.627 2.46 5.506 1.299 1.88-1.162 2.461-3.627 1.299-5.506z"/><path d="m41.896 92.598c-1.879 1.162-2.46 3.627-1.299 5.506 1.162 1.879 3.627 2.46 5.506 1.299 1.879-1.162 2.46-3.627 1.299-5.506-1.162-1.879-3.627-2.46-5.506-1.299z"/><path d="m122.104 47.403c1.879-1.162 2.46-3.627 1.299-5.506-1.162-1.879-3.627-2.46-5.506-1.299-1.879 1.162-2.46 3.627-1.299 5.506 1.162 1.879 3.627 2.461 5.506 1.299z"/><path d="m210.093 57.364c2.646 4.277 7.237 6.633 11.932 6.633 2.511 0 5.052-.674 7.339-2.088 3.181-1.967 5.405-5.054 6.264-8.693.858-3.64.249-7.396-1.718-10.577s-5.054-5.405-8.694-6.264c-3.635-.859-7.395-.249-10.576 1.718s-5.405 5.054-6.264 8.693c-.86 3.641-.25 7.397 1.717 10.578zm6.068-8.739c.368-1.56 1.321-2.883 2.685-3.727s2.972-1.106 4.533-.736c1.56.368 2.883 1.321 3.726 2.685.843 1.363 1.104 2.973.736 4.532-.368 1.56-1.321 2.883-2.685 3.726-2.813 1.74-6.519.866-8.259-1.948-.843-1.363-1.104-2.973-.736-4.532z"/><path d="m225.508 92h-17.508v-12c0-2.209-1.791-4-4-4s-4 1.791-4 4v12h-20v-12c0-2.209-1.791-4-4-4s-4 1.791-4 4v12h-24v-12c0-2.209-1.791-4-4-4s-4 1.791-4 4v12h-20v-12c0-2.209-1.791-4-4-4s-4 1.791-4 4v12h-17.508c-16.814 0-30.492 13.679-30.492 30.492v9.508 109.508c0 16.813 13.678 30.492 30.492 30.492h131.016c16.813 0 30.492-13.679 30.492-30.492v-109.508-9.508c0-16.813-13.679-30.492-30.492-30.492zm22.492 149.508c0 12.402-10.09 22.492-22.492 22.492h-131.016c-12.402 0-22.492-10.09-22.492-22.492v-105.508h68.403c-.263 1.293-.403 2.63-.403 4v13.658c0 5.163 2.226 9.973 6.099 13.189l.191.16c.023.019.047.034.07.053-10.841 5.13-18.36 16.172-18.36 28.94v16h-9.649c-2.812 0-5.1-2.288-5.1-5.099 0-2.209-1.791-4-4-4s-4 1.791-4 4c0 5.412 3.3 10.068 7.994 12.062-4.588 3.549-7.559 9.091-7.559 15.327 0 10.69 8.697 19.388 19.389 19.388 6.192 0 23.078-4.355 35.06-9.603 11.981 5.248 28.867 9.603 35.059 9.603 10.691 0 19.389-8.698 19.389-19.388 0-6.283-3.017-11.86-7.664-15.406 4.605-2.033 7.831-6.636 7.831-11.984 0-2.209-1.791-4-4-4s-4 1.791-4 4c0 2.812-2.288 5.099-5.1 5.099h-9.65v-16c0-12.741-7.486-23.763-18.289-28.907.116-.095.239-.178.354-.276 3.771-3.221 5.935-7.978 5.935-13.051v-13.765c0-1.37-.14-2.707-.403-4h68.403zm-122.926-18.606c5.297 0 22.605 1.251 34.011 4.349.688.187 1.41.187 2.098 0 11.405-3.098 28.713-4.349 34.01-4.349 6.279 0 11.389 5.109 11.389 11.389 0 6.279-5.109 11.388-11.389 11.388-4.879 0-22.134-4.402-33.375-9.619-.534-.248-1.108-.372-1.684-.372s-1.149.124-1.684.372c-11.241 5.217-28.497 9.619-33.376 9.619-6.279 0-11.389-5.109-11.389-11.388 0-6.28 5.11-11.389 11.389-11.389zm58.926-7.369c-7.23.635-16.365 1.799-23.866 3.721-7.593-1.945-16.863-3.115-24.134-3.745v-19.509c0-13.234 10.767-24 24-24s24 10.766 24 24zm-12-75.533v13.765c0 2.729-1.141 5.269-3.13 6.968-5.032 4.298-12.38 4.346-17.461.126l-.191-.16c-2.015-1.673-3.218-4.306-3.218-7.042v-13.657c0-6.617 5.383-12 12-12s12 5.383 12 12zm76-12h-72.038c-3.653-4.847-9.439-8-15.962-8-6.525 0-12.312 3.155-15.965 8.004-.012 0-.023-.004-.035-.004h-72v-5.508c0-12.402 10.09-22.492 22.492-22.492h17.508v4c0 2.209 1.791 4 4 4s4-1.791 4-4v-4h20v4c0 2.209 1.791 4 4 4s4-1.791 4-4v-4h24v4c0 2.209 1.791 4 4 4s4-1.791 4-4v-4h20v4c0 2.209 1.791 4 4 4s4-1.791 4-4v-4h17.508c12.402 0 22.492 10.09 22.492 22.492z"/><circle cx="94" cy="154" r="6"/><circle cx="118" cy="154" r="6"/><circle cx="94" cy="178" r="6"/><circle cx="118" cy="178" r="6"/></svg>