<svg id="stones" enable-background="new 0 0 300 300" height="512" viewBox="0 0 300 300" width="512" xmlns="http://www.w3.org/2000/svg"><path d="m246 190c0-15.439-12.561-28-28-28h-5.509c5.844-5.443 9.509-13.198 9.509-21.796v-.408c0-11.792-6.885-22.004-16.846-26.831 5.663-4.394 9.317-11.259 9.317-18.965 0-13.234-10.766-24-24-24h-48.471c-13.234 0-24 10.766-24 24 0 6.511 2.61 12.421 6.834 16.749-13.255 3.018-23.181 14.891-23.181 29.047v.408c0 16.097 12.832 29.244 28.804 29.771-5.212 5.088-8.457 12.183-8.457 20.025 0 7.829 3.234 14.914 8.431 20h-18.431c-16.542 0-30 13.458-30 30s13.458 30 30 30h104c16.542 0 30-13.458 30-30 0-10.805-5.743-20.291-14.336-25.574 8.546-4.799 14.336-13.947 14.336-24.426zm-104-112h48.471c8.822 0 16 7.178 16 16s-7.178 16-16 16h-48.471c-8.822 0-16-7.178-16-16s7.178-16 16-16zm-10.551 84c-12.018 0-21.796-9.778-21.796-21.796v-.408c0-12.018 9.778-21.796 21.796-21.796h60.755c12.018 0 21.795 9.778 21.795 21.796v.408c0 12.018-9.777 21.796-21.795 21.796zm106.551 78c0 12.131-9.869 22-22 22h-104c-12.131 0-22-9.869-22-22s9.869-22 22-22h103.231.769c12.131 0 22 9.869 22 22zm-20-30h-68c-11.028 0-20-8.972-20-20s8.972-20 20-20h68c11.028 0 20 8.972 20 20s-8.972 20-20 20z"/><path d="m206 140c0-2.209-1.791-4-4-4s-4 1.791-4 4c0 5.514-4.486 10-10 10-2.209 0-4 1.791-4 4s1.791 4 4 4c9.925 0 18-8.075 18-18z"/><path d="m112 224.803c-8.379 0-15.197 6.817-15.197 15.197 0 2.209 1.791 4 4 4s4-1.791 4-4c0-3.968 3.229-7.197 7.197-7.197 2.209 0 4-1.791 4-4s-1.791-4-4-4z"/><path d="m62 134c-2.209 0-4 1.791-4 4v12c0 2.209 1.791 4 4 4s4-1.791 4-4v-12c0-2.209-1.791-4-4-4z"/><path d="m62 162c-2.209 0-4 1.791-4 4v12c0 2.209 1.791 4 4 4s4-1.791 4-4v-12c0-2.209-1.791-4-4-4z"/><path d="m54 154h-12c-2.209 0-4 1.791-4 4s1.791 4 4 4h12c2.209 0 4-1.791 4-4s-1.791-4-4-4z"/><path d="m86 158c0-2.209-1.791-4-4-4h-12c-2.209 0-4 1.791-4 4s1.791 4 4 4h12c2.209 0 4-1.791 4-4z"/><path d="m238 50c2.209 0 4-1.791 4-4v-12c0-2.209-1.791-4-4-4s-4 1.791-4 4v12c0 2.209 1.791 4 4 4z"/><path d="m238 58c-2.209 0-4 1.791-4 4v12c0 2.209 1.791 4 4 4s4-1.791 4-4v-12c0-2.209-1.791-4-4-4z"/><path d="m218 58h12c2.209 0 4-1.791 4-4s-1.791-4-4-4h-12c-2.209 0-4 1.791-4 4s1.791 4 4 4z"/><path d="m258 50h-12c-2.209 0-4 1.791-4 4s1.791 4 4 4h12c2.209 0 4-1.791 4-4s-1.791-4-4-4z"/><circle cx="102" cy="54" r="4"/><circle cx="250" cy="126" r="4"/><circle cx="42" cy="234" r="4"/><path d="m56 74c7.72 0 14-6.28 14-14s-6.28-14-14-14-14 6.28-14 14 6.28 14 14 14zm0-20c3.309 0 6 2.691 6 6s-2.691 6-6 6-6-2.691-6-6 2.691-6 6-6z"/></svg>