<svg id="lotus" enable-background="new 0 0 300 300" height="512" viewBox="0 0 300 300" width="512" xmlns="http://www.w3.org/2000/svg"><path d="m56 48c2.209 0 4-1.791 4-4v-12c0-2.209-1.791-4-4-4s-4 1.791-4 4v12c0 2.209 1.791 4 4 4z"/><path d="m56 56c-2.209 0-4 1.791-4 4v12c0 2.209 1.791 4 4 4s4-1.791 4-4v-12c0-2.209-1.791-4-4-4z"/><path d="m36 56h12c2.209 0 4-1.791 4-4s-1.791-4-4-4h-12c-2.209 0-4 1.791-4 4s1.791 4 4 4z"/><path d="m64 56h12c2.209 0 4-1.791 4-4s-1.791-4-4-4h-12c-2.209 0-4 1.791-4 4s1.791 4 4 4z"/><circle cx="100" cy="80" r="4"/><circle cx="228" cy="80" r="4"/><path d="m198 64c7.72 0 14-6.28 14-14s-6.28-14-14-14-14 6.28-14 14 6.28 14 14 14zm0-20c3.309 0 6 2.691 6 6s-2.691 6-6 6-6-2.691-6-6 2.691-6 6-6z"/><path d="m271.442 200.302c-.508-.405-11.615-9.192-27.942-15.692 24.056-31.228 20.979-76.382 20.823-78.438-.148-1.972-1.716-3.539-3.688-3.688-1.855-.141-38.948-2.668-69.125 14.629-7.723-34.05-34.705-59.695-35.901-60.818-1.442-1.352-3.655-1.448-5.21-.225-1.374 1.081-32.448 25.886-42.055 60.96-30.149-17.205-67.125-14.685-68.98-14.546-1.972.149-3.539 1.716-3.688 3.688-.156 2.056-3.233 47.208 20.821 78.436-16.325 6.499-27.43 15.286-27.94 15.694-.846.675-1.381 1.664-1.485 2.74-.104 1.077.231 2.149.932 2.974 1.03 1.214 25.627 29.762 60.413 32.534 1.841.147 3.67.216 5.484.216 9.394 0 18.348-1.858 26.177-4.367-.774 2.105-1.07 4.218-.857 6.334 1.529 15.177 27.934 29.264 30.939 30.82.576.298 1.207.448 1.839.448.596 0 1.191-.133 1.742-.399.335-.163 8.306-4.039 16.231-9.678 11.532-8.206 17.016-15.975 16.299-23.091-.094-.937-.296-1.855-.583-2.754 6.957 1.781 13.75 2.692 20.317 2.692 1.877 0 3.737-.073 5.576-.22 34.785-2.771 59.383-31.32 60.413-32.534.7-.824 1.036-1.897.932-2.974s-.638-2.066-1.484-2.741zm-14.966-89.969c.205 12.065-1.057 51.94-24.978 75.861-23.926 23.926-63.804 25.194-75.864 24.978-.216-12.053 1.014-51.893 24.98-75.86 23.923-23.925 63.817-25.187 75.862-24.979zm-106.476 71.314c-2.845-15.587-8.898-33.8-21.505-48.281 1.609-18.826 16.649-34.504 22.911-40.267 5.648 6.181 18.917 22.643 19.332 41.153-12.089 14.333-17.951 32.125-20.738 47.395zm2.638-116.982c6.997 7.368 26.558 29.973 31.668 57.072-2.156 1.549-4.255 3.22-6.277 5.022-3.932-23.328-22.754-41.249-23.648-42.087-1.442-1.352-3.655-1.448-5.21-.225-1.011.795-22.47 17.951-27.679 41.895-1.955-1.712-3.978-3.305-6.054-4.785 6.666-27.877 29.334-49.927 37.2-56.892zm-109.114 45.664c12.042-.218 51.894 1.015 75.86 24.981.651.651 1.277 1.318 1.895 1.992.119.148.247.286.385.416 21.722 24.106 22.896 61.795 22.698 73.457-12.036.223-51.894-1.015-75.861-24.981-23.923-23.924-25.182-63.808-24.977-75.865zm45.528 120.246c-24.9-1.984-44.704-19.334-51.962-26.58 4.703-3.217 13.739-8.817 24.972-12.95.261.269.518.54.783.805 21.574 21.574 53.669 26.35 71.856 27.209-.218.14-.436.276-.654.418-.861.564-1.672 1.131-2.459 1.698-.048.021-.099.03-.146.054-10.271 4.986-25.954 10.653-42.39 9.346zm76.36 24.775c-5.245 3.741-10.65 6.717-13.367 8.139-9.892-5.45-24.083-15.807-24.864-23.559-.753-7.48 14.518-16.442 23.239-20.235 9.622 3.498 27.104 12.105 27.894 19.938.388 3.864-4.314 9.592-12.902 15.717zm45.536-24.775c-10.528.84-21.881-1.04-33.737-5.586-.018-.007-.037-.008-.056-.015-2.814-2.283-5.998-4.318-9.152-6.069 18.531-1.202 48.608-6.51 69.151-27.054.265-.265.521-.535.781-.803 11.237 4.134 20.279 9.735 24.98 12.952-7.24 7.245-26.998 24.585-51.967 26.575z"/><path d="m222.36 181.284c1.033 0 2.065-.398 2.848-1.191 18.354-18.61 16.239-50.05 16.141-51.379-.165-2.203-2.105-3.861-4.286-3.692-2.203.164-3.856 2.083-3.692 4.286.021.29 1.972 29.118-13.857 45.168-1.552 1.573-1.534 4.105.039 5.657.778.768 1.793 1.151 2.807 1.151z"/><path d="m81.218 179.56c.751.634 1.667.944 2.579.944 1.137 0 2.267-.482 3.058-1.418 1.426-1.688 1.213-4.211-.475-5.637-17.117-14.46-17.891-43.283-17.9-43.726-.036-2.186-1.819-3.933-3.998-3.933-.022 0-.045 0-.067 0-2.209.037-3.97 1.857-3.933 4.065.021 1.334.768 32.836 20.736 49.705z"/></svg>