<svg id="meditation" enable-background="new 0 0 300 300" height="512" viewBox="0 0 300 300" width="512" xmlns="http://www.w3.org/2000/svg"><path d="m56.002 48.735c2.209 0 4-1.791 4-4v-12c0-2.209-1.791-4-4-4s-4 1.791-4 4v12c0 2.209 1.791 4 4 4z"/><path d="m56.002 56.735c-2.209 0-4 1.791-4 4v12c0 2.209 1.791 4 4 4s4-1.791 4-4v-12c0-2.209-1.791-4-4-4z"/><path d="m36.002 56.735h12c2.209 0 4-1.791 4-4s-1.791-4-4-4h-12c-2.209 0-4 1.791-4 4s1.791 4 4 4z"/><path d="m64.002 56.735h12c2.209 0 4-1.791 4-4s-1.791-4-4-4h-12c-2.209 0-4 1.791-4 4s1.791 4 4 4z"/><path d="m217.898 113.334c-1.879 1.162-2.46 3.627-1.299 5.506 1.162 1.879 3.627 2.46 5.506 1.299 1.879-1.162 2.46-3.627 1.299-5.506s-3.627-2.461-5.506-1.299z"/><path d="m65.898 105.334c-1.879 1.162-2.46 3.627-1.299 5.506 1.162 1.879 3.627 2.46 5.506 1.299 1.879-1.162 2.46-3.627 1.299-5.506-1.162-1.88-3.627-2.461-5.506-1.299z"/><path d="m267.404 46.632c-1.162-1.879-3.627-2.46-5.506-1.299-1.879 1.162-2.46 3.627-1.299 5.506 1.162 1.879 3.627 2.46 5.506 1.299 1.88-1.162 2.461-3.627 1.299-5.506z"/><path d="m206.095 70.1c2.646 4.277 7.237 6.633 11.932 6.633 2.511 0 5.052-.674 7.339-2.088 3.181-1.967 5.405-5.054 6.264-8.693.858-3.64.249-7.396-1.718-10.577s-5.054-5.405-8.694-6.264c-3.636-.859-7.396-.249-10.576 1.718-3.181 1.967-5.405 5.054-6.264 8.693-.86 3.641-.25 7.396 1.717 10.578zm6.068-8.74c.368-1.56 1.321-2.883 2.685-3.727 1.363-.843 2.972-1.106 4.533-.736 1.56.368 2.883 1.321 3.726 2.685.843 1.363 1.104 2.973.736 4.532-.368 1.56-1.321 2.883-2.685 3.726-2.813 1.74-6.519.866-8.259-1.948-.843-1.363-1.104-2.973-.736-4.532z"/><path d="m53.365 166.645c3.181-1.967 5.405-5.054 6.264-8.693.858-3.64.249-7.396-1.718-10.577s-5.054-5.405-8.694-6.264c-3.636-.859-7.395-.249-10.576 1.718s-5.405 5.054-6.264 8.693c-.858 3.64-.249 7.396 1.718 10.577 2.646 4.277 7.237 6.633 11.932 6.633 2.51.001 5.051-.673 7.338-2.087zm-12.466-8.753c-.843-1.363-1.104-2.973-.736-4.532.368-1.56 1.321-2.883 2.685-3.727s2.973-1.105 4.533-.736c1.56.368 2.883 1.321 3.726 2.685.843 1.363 1.104 2.973.736 4.532-.368 1.56-1.321 2.883-2.685 3.726-2.813 1.741-6.519.865-8.259-1.948z"/><path d="m236.002 196.735c0-2.209-1.791-4-4-4h-36v-26.445c0-21.547-15.198-39.601-35.434-44.033.963-.603 1.906-1.249 2.823-1.946 7.896-6.007 12.611-15.516 12.611-25.437v-22.139c0-19.851-16.149-36-36-36s-36 16.149-36 36v21.905c0 10.088 4.842 19.693 12.955 25.695l.382.282c.76.562 1.538 1.087 2.328 1.586-20.352 4.344-35.665 22.458-35.665 44.087v26.445h-36c-2.209 0-4 1.791-4 4 0 9.315 6.411 17.141 15.046 19.354-7.02 5.699-11.516 14.391-11.516 24.117 0 17.126 13.933 31.059 31.059 31.059 10.582 0 41.16-7.996 61.647-17.171 20.486 9.175 51.063 17.171 61.646 17.171 17.126 0 31.059-13.933 31.059-31.059 0-9.779-4.547-18.511-11.632-24.208 8.455-2.334 14.691-10.075 14.691-19.263zm-124-102.094v-21.906c0-15.439 12.561-28 28-28s28 12.561 28 28v22.138c0 7.438-3.534 14.566-9.455 19.07-10.676 8.12-25.665 8.221-36.453.241l-.382-.282c-6.08-4.498-9.71-11.698-9.71-19.261zm17.084 34.565h21.832c20.448 0 37.084 16.636 37.084 37.084v42.445c-.185-.002-9.76-.135-22.913-5.371-5.854-2.331-13.02-5.94-20.643-11.477 6.335-5.585 12.699-12.422 18.792-20.799 1.299-1.787.904-4.288-.883-5.587-1.785-1.299-4.287-.905-5.588.882-6.067 8.342-12.446 15.038-18.771 20.419-6.257-5.337-12.655-12.026-18.758-20.419-1.301-1.788-3.804-2.181-5.588-.882-1.787 1.299-2.182 3.801-.883 5.587 6.087 8.369 12.444 15.201 18.773 20.782-16.878 12.201-32.455 15.58-39.538 16.511v-42.091c0-20.448 16.636-37.084 37.084-37.084zm36.403 82.92c-8.597 1.169-17.464 2.73-25.251 4.775-8.784-2.306-18.942-3.998-28.536-5.203 7.808-2.882 16.907-7.412 26.3-14.535 9.873 7.486 19.421 12.108 27.487 14.963zm-112.802-11.391h31.314v8h-20c-5.214 0-9.663-3.343-11.314-8zm172.255 39.471c0 12.714-10.344 23.059-23.059 23.059-9.047 0-39.509-7.704-59.963-17.195-.534-.248-1.108-.372-1.684-.372s-1.149.124-1.684.372c-20.454 9.492-50.917 17.195-59.964 17.195-12.715 0-23.059-10.344-23.059-23.059s10.344-23.059 23.059-23.059c9.432 0 40.265 2.231 60.599 7.754.688.187 1.41.187 2.098 0 20.333-5.523 51.166-7.754 60.598-7.754 12.715 0 23.059 10.344 23.059 23.059zm-8.94-31.471h-20v-8h31.314c-1.65 4.657-6.099 8-11.314 8z"/><path d="m126.558 84.579c2.596 0 5.033-1.265 6.637-3.482 1.295-1.79.893-4.291-.896-5.585-1.79-1.293-4.291-.893-5.586.897-.086.12-.165.167-.156.171-.015-.004-.085-.045-.169-.157-1.317-1.774-3.822-2.141-5.596-.824-1.773 1.318-2.143 3.823-.824 5.597 1.41 1.898 3.521 3.117 5.791 3.344.267.026.535.039.799.039z"/><path d="m150.728 84.539c.269.027.536.04.802.04 2.596 0 5.033-1.265 6.636-3.483 1.294-1.791.891-4.292-.899-5.585s-4.29-.891-5.585.899c-.086.119-.164.165-.154.169-.015-.004-.085-.045-.169-.157-1.316-1.774-3.823-2.141-5.596-.824-1.773 1.318-2.143 3.823-.824 5.597 1.409 1.899 3.521 3.117 5.789 3.344z"/></svg>