<svg id="meditation_x5F_mind" enable-background="new 0 0 300 300" height="512" viewBox="0 0 300 300" width="512" xmlns="http://www.w3.org/2000/svg"><path d="m246.002 64c2.209 0 4-1.791 4-4v-12c0-2.209-1.791-4-4-4s-4 1.791-4 4v12c0 2.209 1.791 4 4 4z"/><path d="m246.002 72c-2.209 0-4 1.791-4 4v12c0 2.209 1.791 4 4 4s4-1.791 4-4v-12c0-2.209-1.791-4-4-4z"/><path d="m226.002 72h12c2.209 0 4-1.791 4-4s-1.791-4-4-4h-12c-2.209 0-4 1.791-4 4s1.791 4 4 4z"/><path d="m266.002 64h-12c-2.209 0-4 1.791-4 4s1.791 4 4 4h12c2.209 0 4-1.791 4-4s-1.791-4-4-4z"/><path d="m259.899 112.598c-1.879 1.162-2.46 3.627-1.299 5.506 1.162 1.879 3.627 2.46 5.506 1.299 1.879-1.162 2.46-3.627 1.299-5.506-1.162-1.879-3.627-2.46-5.506-1.299z"/><path d="m80.106 35.403c1.879-1.162 2.46-3.627 1.299-5.506-1.162-1.879-3.627-2.46-5.506-1.299-1.879 1.162-2.46 3.627-1.299 5.506 1.162 1.879 3.627 2.461 5.506 1.299z"/><path d="m223.899 256.598c-1.879 1.162-2.46 3.627-1.299 5.506 1.162 1.879 3.627 2.46 5.506 1.299 1.879-1.162 2.46-3.627 1.299-5.506-1.162-1.879-3.627-2.46-5.506-1.299z"/><path d="m39.899 208.598c-1.879 1.162-2.46 3.627-1.299 5.506 1.162 1.879 3.627 2.46 5.506 1.299 1.879-1.162 2.46-3.627 1.299-5.506-1.162-1.879-3.627-2.46-5.506-1.299z"/><path d="m51.365 57.909c3.181-1.967 5.405-5.054 6.264-8.693.858-3.64.249-7.396-1.718-10.577s-5.054-5.405-8.694-6.264c-3.635-.859-7.395-.249-10.576 1.718s-5.405 5.054-6.264 8.693c-.858 3.64-.249 7.396 1.718 10.577 2.646 4.277 7.237 6.633 11.932 6.633 2.51.002 5.051-.673 7.338-2.087zm-12.465-8.752c-.843-1.363-1.104-2.973-.736-4.532.368-1.56 1.321-2.883 2.685-3.727s2.972-1.105 4.533-.736c1.56.368 2.883 1.321 3.726 2.685.843 1.363 1.104 2.973.736 4.532-.368 1.56-1.321 2.883-2.685 3.726-2.814 1.74-6.519.865-8.259-1.948z"/><path d="m251.217 220.375c-3.636-.859-7.396-.249-10.576 1.718s-5.405 5.054-6.264 8.693c-.858 3.64-.249 7.396 1.718 10.577 2.646 4.277 7.237 6.633 11.932 6.633 2.511 0 5.052-.674 7.339-2.088 3.181-1.967 5.405-5.054 6.264-8.693.858-3.64.249-7.396-1.718-10.577s-5.054-5.404-8.695-6.263zm2.626 15.003c-.368 1.56-1.321 2.883-2.685 3.726-2.813 1.74-6.519.866-8.259-1.948-.843-1.363-1.104-2.973-.736-4.532.368-1.56 1.321-2.883 2.685-3.727 1.363-.843 2.973-1.106 4.533-.736 1.56.368 2.883 1.321 3.726 2.685.842 1.363 1.104 2.973.736 4.532z"/><path d="m240.401 194.194c2.888-4.672 3.145-10.395.688-15.308l-12.278-24.556-1.908-20.173c-.054-25.617-10.786-50.363-29.464-67.917-18.986-17.845-43.825-26.781-69.943-25.157-22.69 1.409-44.126 11.219-60.359 27.624-16.231 16.402-25.821 37.94-27.003 60.646-1.057 20.268 4.274 39.85 15.418 56.63 2.979 4.485 5.534 9.24 7.594 14.134l6.466 15.363c7.034 16.715 10.602 34.385 10.602 52.52 0 2.209 1.791 4 4 4h98.48c1.231 0 2.395-.567 3.152-1.539.759-.971 1.027-2.237.729-3.432l-5.792-23.167h10.869c16.66 0 30.214-13.554 30.214-30.213v-11.993h5.151c5.492 0 10.496-2.789 13.384-7.462zm-22.537-.538c-2.209 0-4 1.791-4 4v15.993c0 12.249-9.965 22.213-22.214 22.213h-15.992c-1.231 0-2.395.567-3.152 1.539-.759.971-1.027 2.237-.729 3.432l5.793 23.167h-89.413c-.488-17.805-4.241-35.151-11.174-51.624l-6.466-15.363c-2.253-5.355-5.047-10.556-8.303-15.457-10.187-15.338-15.06-33.246-14.094-51.788 1.081-20.744 9.853-40.431 24.7-55.436 14.851-15.006 34.443-23.979 55.17-25.267 23.898-1.482 46.608 6.686 63.969 23.002 17.374 16.329 26.942 38.446 26.942 62.278 0 .126.006.251.018.376l1.996 21.103c.047.492.184.971.404 1.413l12.612 25.225c1.226 2.451 1.103 5.193-.338 7.524s-3.839 3.668-6.579 3.668h-9.15z"/><path d="m133.452 63.521c-39.054 0-70.826 31.772-70.826 70.826s31.772 70.827 70.826 70.827 70.826-31.772 70.826-70.827c.001-39.054-31.772-70.826-70.826-70.826zm0 133.653c-34.643 0-62.826-28.184-62.826-62.827s28.184-62.826 62.826-62.826 62.826 28.184 62.826 62.826-28.183 62.827-62.826 62.827z"/><path d="m153.328 127.154c-2.338-18.085-19.052-31.533-19.808-32.132-1.494-1.184-3.62-1.149-5.074.087-.682.579-16.176 13.935-18.542 31.449-11.453-1.437-21.624 1.119-22.271 1.286-1.848.479-3.1 2.197-2.989 4.102.059 1.026 1.632 25.271 17.705 36.983 5.641 4.111 12.807 6.499 21.3 7.098.096.007.19.01.285.01.331 0 .649-.054.958-.131 2.031.327 6.174.87 11.311.87 8.468 0 19.614-1.479 28.352-7.846 16.073-11.712 17.647-35.957 17.706-36.983.11-1.905-1.142-3.623-2.989-4.102-.715-.186-13.079-3.297-25.944-.691zm-22.2-23.551c4.536 4.351 13.517 14.362 14.38 25.933-2.375.997-4.69 2.249-6.866 3.835-1.927 1.404-3.649 3.009-5.196 4.741-1.607-1.789-3.333-3.391-5.186-4.741-3.27-2.383-6.851-4.026-10.487-5.145 1.217-10.861 9.198-20.355 13.355-24.623zm-38.09 31.314c6.435-1.046 20.646-2.269 30.512 4.919 1.839 1.341 3.537 3.016 5.08 4.955-4.931 8.409-6.986 17.785-7.787 22.88-5.474-.793-10.107-2.529-13.782-5.208-9.826-7.159-13.036-21.093-14.023-27.546zm66.806 27.547c-9.811 7.149-24.271 6.622-31.001 5.89 1.143-6.827 4.656-21.336 14.511-28.517 9.823-7.158 24.062-5.949 30.512-4.913-.989 6.46-4.202 20.384-14.022 27.54z"/></svg>